name analog
datacolumns 19
datarows 18
range 0.8060000000000003 0.8145000000000002
endheader
time	ground_force_vx	ground_force_vy	ground_force_vz	ground_force_px	ground_force_py	ground_force_pz	l_ground_force_vx	l_ground_force_vy	l_ground_force_vz	l_ground_force_px	l_ground_force_py	l_ground_force_pz	ground_torque_x	ground_torque_y	ground_torque_z	l_ground_torque_x	l_ground_torque_y	l_ground_torque_z
0.8060000000000003	-0.0	-0.0	-0.0	-0.1197526752948761	34.07057189941406	-334.58233642578125	5.943622589111328	-35.14302062988281	-352.9923095703125	-0.0	-0.0	-0.0	-0.0	-0.0	-0.0	91402.15625	24625.427734375	-3004.572509765625
0.8065000000000002	-0.0	-0.0	-0.0	0.5555099844932556	36.24573516845703	-344.3103942871094	7.298803329467773	-36.862098693847656	-361.3719482421875	-0.0	-0.0	-0.0	-0.0	-0.0	-0.0	93920.109375	24440.0625	-2547.706787109375
0.8070000000000003	-0.0	-0.0	-0.0	1.5467183589935305	37.108360290527344	-352.354248046875	9.69196891784668	-37.97832489013672	-369.0139465332031	-0.0	-0.0	-0.0	-0.0	-0.0	-0.0	96651.71875	24131.232421875	-2049.572265625
0.8075000000000003	-0.0	-0.0	-0.0	2.8347396850585938	38.50511169433594	-359.6559143066406	12.364394187927246	-39.17110824584961	-378.2193908691406	-0.0	-0.0	-0.0	-0.0	-0.0	-0.0	99043.0859375	24027.205078125	-1387.87646484375
0.8080000000000003	-0.0	-0.0	-0.0	4.074171543121338	40.79224395751953	-369.0730590820313	15.480277061462402	-40.59516525268555	-388.258544921875	-0.0	-0.0	-0.0	-0.0	-0.0	-0.0	101695.2265625	23467.265625	-492.4046630859375
0.8085000000000002	-0.0	-0.0	-0.0	5.461586952209473	41.98006439208984	-376.8821105957031	19.593889236450195	-41.87550354003906	-399.9965515136719	-0.0	-0.0	-0.0	-0.0	-0.0	-0.0	104720.3125	23472.28515625	626.24365234375
0.8090000000000003	-0.0	-0.0	-0.0	6.7987494468688965	44.68462753295898	-384.023193359375	24.350818634033203	-43.354400634765625	-410.602294921875	-0.0	-0.0	-0.0	-0.0	-0.0	-0.0	107739.0234375	23549.013671875	1967.62158203125
0.8095000000000003	-0.0	-0.0	-0.0	9.188682556152344	45.8325424194336	-391.9085693359375	29.551658630371094	-45.7724723815918	-423.8230895996094	-0.0	-0.0	-0.0	-0.0	-0.0	-0.0	111281.578125	23207.287109375	3394.759033203125
0.8100000000000003	-0.0	-0.0	-0.0	10.623732566833496	47.31655883789063	-399.99945068359375	33.91861724853516	-48.16785430908203	-437.4012756347656	-0.0	-0.0	-0.0	-0.0	-0.0	-0.0	114988.28125	23416.5	4835.67236328125
0.8105000000000002	-0.0	-0.0	-0.0	13.451522827148438	48.75433349609375	-406.7870178222656	38.22148132324219	-51.17061996459961	-452.75634765625	-0.0	-0.0	-0.0	-0.0	-0.0	-0.0	118704.21875	23149.173828125	5916.6494140625
0.8110000000000003	-0.0	-0.0	-0.0	16.516712188720703	49.79204559326172	-410.71044921875	41.15916061401367	-54.34997177124024	-465.7155151367188	-0.0	-0.0	-0.0	-0.0	-0.0	-0.0	122719.5703125	23431.40234375	6838.1962890625
0.8115000000000003	-0.0	-0.0	-0.0	18.087072372436523	51.16085052490234	-418.7584838867188	43.18841171264648	-57.35276794433594	-478.1993408203125	-0.0	-0.0	-0.0	-0.0	-0.0	-0.0	126163.359375	23202.8828125	7280.25634765625
0.8120000000000003	-0.0	-0.0	-0.0	19.73442268371582	51.64427185058594	-421.8838806152344	43.93314743041992	-59.82560348510742	-489.1476745605469	-0.0	-0.0	-0.0	-0.0	-0.0	-0.0	128938.09375	23742.224609375	7353.75439453125
0.8125000000000002	-0.0	-0.0	-0.0	21.06305313110352	52.41319274902344	-424.7078247070313	42.691043853759766	-61.934566497802734	-498.546875	-0.0	-0.0	-0.0	-0.0	-0.0	-0.0	131363.78125	24017.92578125	7292.93017578125
0.8130000000000003	-0.0	-0.0	-0.0	21.687477111816406	53.24811553955078	-428.79736328125	41.17233276367188	-63.2592887878418	-502.4114990234375	-0.0	-0.0	-0.0	-0.0	-0.0	-0.0	132693.9375	24430.833984375	6729.34912109375
0.8135000000000003	-0.0	-0.0	-0.0	22.696569442749023	53.214385986328125	-431.6225891113281	38.36497497558594	-63.581180572509766	-507.6252136230469	-0.0	-0.0	-0.0	-0.0	-0.0	-0.0	133534.46875	24629.724609375	6081.7509765625
0.8140000000000003	-0.0	-0.0	-0.0	22.428630828857425	53.65650177001953	-430.3807067871094	35.43230056762695	-63.46186828613281	-507.76995849609375	-0.0	-0.0	-0.0	-0.0	-0.0	-0.0	133566.703125	25008.087890625	5261.44970703125
0.8145000000000002	-0.0	-0.0	-0.0	22.25692367553711	53.44171142578125	-429.8923950195313	31.884151458740234	-62.91156005859375	-505.5308227539063	-0.0	-0.0	-0.0	-0.0	-0.0	-0.0	133259.40625	25526.85546875	4110.712890625
